<svg xmlns="http://www.w3.org/2000/svg" viewBox="0 0 64 64">
  <rect width="64" height="64" rx="14" fill="#ff2b7a"/>
  <path d="M11 18h35v32c0 6-6 10-18 10S11 56 11 50V18Z" fill="#ffbf16" stroke="#111" stroke-width="4"/>
  <path d="M46 27h7c7 0 7 19 0 19h-7" fill="none" stroke="#111" stroke-width="4" stroke-linejoin="round"/>
  <path d="M13 20c0-8 8-9 11-3 2-8 12-8 13 1 6-3 10 3 7 8H13c-6-1-6-6 0-6Z" fill="#fff5d9" stroke="#111" stroke-width="4" stroke-linejoin="round"/>
  <path d="M19 31v20M28 30v23M38 31v19" stroke="#fff5d9" stroke-linecap="round" stroke-width="3"/>
</svg>
